PathFileType	4	(X/Y/Z)	C:/Users/beibeiliu/ov580/test_trc\sequence.18_training_dense_right.trc
DataRate	CameraRate	NumFrames	NumMarkers	Units	OrigDataRate	OrigDataStartFrame	OrigNumFrames
120	120	24	19	mm	120	1	336
Frame#	Time	ThumbCMC			ThumbMCP			ThumbIP			ThumbTip			IndexMCP			IndexPIP			IndexTip			MiddleMCP			MiddlePIP			MiddleTip			RingMCP			RingPIP			RingTip			PinkyMCP			PinkyPIP			PinkyTip			BackHand1			BackHand2			BackHand3	
		X0	Y0	Z0	X1	Y1	Z1	X2	Y2	Z2	X3	Y3	Z3	X4	Y4	Z4	X5	Y5	Z5	X6	Y6	Z6	X7	Y7	Z7	X8	Y8	Z8	X9	Y9	Z9	X10	Y10	Z10	X11	Y11	Z11	X12	Y12	Z12	X13	Y13	Z13	X14	Y14	Z14	X15	Y15	Z15	X16	Y16	Z16	X17	Y17	Z17	X18	Y18	Z18	
0	0	206.727	-17.6726	43.64	186.125	-26.3919	22.5546	178.883	-30.1799	-0.251033	172.054	-33.7439	-17.4034	213.885	-6.7724	-23.4945	211.101	-11.2634	-49.2905	205.206	-13.4847	-67.682	238.994	-8.13611	-28.8567	235.887	-10.8558	-52.5858	240.481	-15.6615	-78.3362	255.677	-14.3792	-22.2817	258.464	-16.6901	-44.9579	263.345	-19.3015	-66.2743	272.699	-21.902	-8.64132	281.27	-23.9873	-24.2302	290.618	-22.6313	-37.1126	252.656	-4.9856	21.4212	251.075	0.142343	48.5633	226.826	1.73331	34.417	
1	0.00833333	204.614	-17.3896	38.7959	190.444	-27.1292	23.6428	180.586	-30.0654	-1.44734	169.013	-34.9722	-14.3838	213.723	-7.82219	-23.327	208.804	-9.89917	-48.7349	208.775	-15.0024	-71.2448	235.008	-8.52972	-27.9493	235.007	-11.9872	-56.5115	239.681	-15.9042	-80.1955	253.433	-13.919	-24.6661	262.264	-17.6536	-41.4704	261.698	-19.5847	-65.8301	271.683	-22.1231	-8.00356	281.736	-23.9158	-25.3951	287.62	-22.874	-42.5147	252.058	-5.58501	21.5152	250.934	-0.93493	48.0786	225.94	2.56898	31.2197	
2	0.0166667	203.701	-18.0023	44.0145	191.372	-27.3046	21.1225	179.314	-30.3089	-0.218965	171.797	-33.7761	-15.7276	214.352	-7.94286	-23.7388	208.365	-9.97572	-44.8268	209.574	-14.3823	-67.9221	235.439	-8.97624	-33.02	234.884	-12.1659	-55.8777	240.212	-16.7827	-81.2726	256.386	-14.5308	-22.9023	258.333	-17.46	-41.7078	262.351	-20.6318	-64.3299	272.457	-20.8173	-9.29574	280.694	-24.9345	-23.1227	286.647	-22.9748	-38.7228	253.272	-5.30336	20.4889	254.302	-0.128111	45.3913	228.267	2.9068	32.7408	
3	0.025	202.993	-17.2548	40.8795	188.884	-27.2197	23.7197	180.184	-29.9895	-1.7554	169.598	-34.6865	-16.3445	212.62	-7.29925	-21.9904	208.817	-10.4916	-49.2619	210.965	-14.6106	-69.7872	239.804	-8.79539	-30.8388	239.317	-12.6225	-56.8476	242.877	-17.4501	-79.3065	255.346	-13.269	-24.8104	260.389	-16.9733	-45.6738	261.306	-20.6465	-65.1631	272.364	-21.0693	-8.24742	279.054	-24.8231	-21.7712	289.577	-23.3882	-41.7977	250.952	-3.14774	20.2826	252.977	-1.96385	48.0408	224.863	2.35669	29.055	
4	0.0333333	201.905	-16.3621	39.2615	189.802	-26.9177	22.3178	179.664	-30.1209	-0.638807	170.53	-34.8861	-17.5913	214.283	-7.06973	-26.2017	208.804	-9.3503	-46.5611	211.27	-14.9826	-69.2181	235.159	-7.99931	-27.9311	237.196	-12.7399	-56.9828	239.806	-15.5618	-78.1781	254.375	-14.5677	-20.2181	257.721	-17.1411	-46.8179	261.942	-19.7996	-66.9834	273.204	-22.3024	-5.6378	281.321	-24.3058	-26.2192	289.799	-24.7827	-42.2731	251.511	-4.33771	23.2153	255.858	-0.465701	47.681	230.165	1.70733	32.589	
5	0.0416667	202.802	-17.2101	37.815	191.907	-27.3542	21.2351	181.928	-31.5353	2.95738	171.963	-35.1638	-14.7036	211.327	-8.0181	-24.9547	212.856	-10.7946	-49.3359	205.009	-14.5207	-72.361	237.705	-8.58067	-28.5361	239.631	-11.7539	-53.8669	239.232	-15.4034	-76.9129	253.942	-13.9033	-24.1765	260.817	-16.6967	-43.7095	259.628	-20.4156	-63.6882	275.596	-22.6134	-9.16939	278.616	-24.2699	-23.7058	292.129	-23.2316	-42.5301	255.812	-5.72593	20.0895	253.14	-1.65854	44.386	229.9	1.44696	28.2385	
6	0.05	204.977	-17.8791	38.7758	187.919	-26.5368	22.9148	176.692	-30.2407	0.701157	167.812	-35.4857	-13.6589	212.212	-8.19236	-25.2857	207.121	-10.4754	-49.3618	209.857	-14.5745	-70.9541	234.459	-7.85353	-29.9281	236.502	-11.8471	-54.1603	239.117	-16.0946	-79.0075	257.53	-13.7768	-23.7801	261.192	-16.9914	-44.0471	262.42	-20.3047	-63.6716	271.88	-22.1177	-7.56078	282.577	-25.9355	-24.93	291.507	-23.9857	-43.2738	251.967	-4.02563	22.5995	250.607	-1.48756	46.4328	227.323	1.11169	28.8541	
7	0.0583333	203.609	-17.81	43.0673	188.31	-26.14	22.5624	178.003	-29.9401	1.74399	167.723	-33.8141	-15.4148	210.202	-7.1885	-25.5795	210.232	-11.441	-50.9421	207.402	-13.6174	-73.2112	236.427	-8.97278	-31.6435	236.507	-12.4296	-55.7172	241.759	-17.0647	-82.9615	257.939	-15.0035	-24.4615	262.022	-17.6652	-45.2439	259.341	-19.5519	-63.9271	271.766	-21.9488	-6.22569	278.311	-24.9032	-22.6292	290.857	-22.7263	-40.008	251.524	-2.87726	18.1151	251.508	-0.448356	48.1141	225.177	2.50138	31.7692	
8	0.0666667	206.096	-17.3322	38.0349	188.231	-26.3179	22.7251	180.147	-29.7842	3.11771	168.416	-34.1841	-13.4106	212.086	-7.93991	-26.7786	208.739	-9.91743	-49.1492	208.66	-12.9766	-68.4407	236.917	-8.58489	-30.2881	237.207	-13.0664	-57.7031	238.478	-15.8496	-76.88	254.139	-13.9358	-20.7309	258.193	-17.4354	-42.4863	261.335	-19.6063	-66.3958	273.244	-22.1019	-7.48429	277.953	-25.1174	-25.4913	290.262	-25.1237	-37.4292	255.698	-3.60722	19.8601	254.674	-1.48904	45.0659	228.683	1.27501	32.5813	
9	0.075	202.845	-16.8391	42.7528	187.387	-26.9844	21.6878	178.264	-29.7109	2.70349	167.596	-33.1836	-15.6679	213.369	-6.96314	-26.6896	206.43	-9.8054	-45.7386	206.539	-14.0085	-71.4451	232.924	-7.31473	-33.069	235.835	-12.3562	-57.5287	236.684	-14.6083	-77.9238	254.377	-13.631	-20.9643	256.379	-16.6832	-42.7391	258.788	-18.9942	-64.8929	274.653	-22.2477	-7.22659	278.59	-24.375	-24.6126	286.238	-21.7835	-40.4876	249.61	-5.45783	22.1418	253.626	-2.20523	43.8469	229.845	2.98783	33.2025	
10	0.0833333	205.103	-16.0396	39.2338	185.199	-25.0889	19.3829	175.246	-29.8066	0.419813	168.413	-33.3122	-18.0347	210.658	-5.47188	-23.0302	205.662	-8.76487	-50.1592	208.945	-12.156	-69.5045	234.951	-7.57593	-32.3521	238.04	-10.5017	-54.0335	238.743	-14.9007	-78.4723	255.636	-12.8231	-24.8515	257.367	-15.3927	-43.9143	258.721	-18.2099	-65.1044	274.437	-22.3333	-7.80033	277.659	-23.628	-25.2514	287.673	-21.1872	-43.9496	249.517	-4.38106	23.469	252.021	0.011385	47.532	228.135	1.18149	33.2886	
11	0.0916667	203.398	-17.5558	42.8485	190.754	-25.5365	20.2147	177.41	-28.676	-4.08629	167.44	-32.625	-21.079	208.417	-4.60494	-25.8002	207.717	-7.07086	-50.0257	206.106	-11.8436	-72.6942	231.757	-5.74143	-29.6517	235.941	-8.91817	-56.2459	235.171	-12.4056	-79.8846	254.024	-10.9712	-24.8667	257.309	-14.5316	-44.3896	256.58	-17.1802	-68.0297	270.061	-19.3575	-13.4378	278.691	-22.1886	-28.8782	287.231	-21.5487	-43.4875	251.383	-3.19522	17.8626	251.038	-0.51008	45.4703	223.702	2.2881	29.0289	
12	0.1	200.801	-16.98	41.1776	189.551	-25.852	18.8393	179.343	-29.8404	-0.299007	169.956	-32.7215	-18.6106	207.195	-1.40336	-28.108	207.625	-5.19523	-50.184	202.859	-9.30035	-68.8885	230.837	-3.21457	-34.988	236.638	-8.70474	-58.9832	236.962	-12.3547	-80.5096	251.693	-9.37792	-27.0293	257.296	-13.0855	-48.6171	253.323	-14.1855	-68.6179	271.475	-17.8298	-13.5091	274.682	-20.3107	-29.5413	282.001	-19.2401	-46.2636	249.261	0.0348665	18.9594	250.43	-0.851333	44.2912	223.967	4.9783	32.7576	
13	0.108333	204.862	-16.6229	37.9191	188.706	-26.8624	17.493	180.945	-29.0857	-2.76651	170.782	-34.1025	-18.293	211.005	-0.679767	-25.0021	208.741	-2.53816	-49.7069	204.112	-7.44561	-74.2572	235.456	-1.71029	-30.1451	235.68	-4.96852	-55.0654	236.886	-10.3232	-83.0054	254.011	-8.3493	-27.873	250.495	-10.7542	-46.8753	253.933	-13.3844	-65.4051	271.348	-17.419	-10.3653	275.566	-20.088	-31.2218	278.264	-17.6374	-44.9977	249.057	-0.865379	22.2816	250.95	-0.420303	43.552	223.591	5.56897	33.4751	
14	0.116667	202.518	-16.6316	37.6512	185.412	-27.7829	19.0487	179.752	-29.9895	-3.24068	169.787	-33.5587	-24.4634	207.862	3.67246	-27.7651	207.855	-0.13355	-51.4449	202.276	-3.64662	-71.0898	230.237	1.04841	-31.5359	235.028	-1.86808	-54.2294	233.996	-7.35013	-81.9339	253.751	-6.29903	-26.0737	252.766	-8.28912	-50.5313	250.914	-12.0198	-70.9788	268.764	-15.7923	-11.3629	276.051	-17.5849	-27.8556	279.556	-15.8465	-49.4241	252.189	-0.869678	21.0265	249.175	0.0658029	46.1509	224.311	4.56658	30.2668	
15	0.125	200.372	-16.0768	37.4405	188.017	-28.429	17.3975	178.964	-31.7643	-3.1799	172.519	-35.8551	-21.719	206.308	6.24799	-25.45	203.448	2.98326	-50.4519	199.504	-0.820719	-70.68	230.484	3.99214	-32.6863	229.071	1.1086	-57.9663	229.878	-4.37938	-80.2707	248.127	-2.06661	-26.5147	254.435	-5.16857	-46.1845	251.31	-10.568	-69.7105	268.558	-12.6689	-12.0017	273.528	-14.8093	-29.6616	276.077	-13.8541	-49.8173	253.098	1.25142	22.9471	252.811	0.933701	44.7455	224.501	4.58271	34.8071	
16	0.133333	203.654	-16.8517	38.4526	186.636	-28.5391	16.168	182.163	-30.8789	-7.63299	174.388	-36.7018	-25.8412	205.634	9.48387	-24.5344	201.062	7.33932	-47.6621	201.768	0.708411	-72.0235	228.852	8.7185	-27.4866	228.478	5.84897	-54.3293	232.84	-4.01742	-78.6051	247.597	0.25666	-20.9109	249.539	-2.72589	-48.892	246.17	-9.73544	-70.4926	267.625	-10.0071	-9.18716	269.672	-11.8124	-33.4459	271.546	-12.8275	-53.0219	250.514	2.92783	24.8302	252.182	0.855933	49.4631	225.091	4.80021	36.9719	
17	0.141667	200.034	-16.1786	37.6097	189.909	-28.3553	12.8725	180.314	-33.4039	-5.26117	176.419	-37.4968	-24.7722	207.384	12.8585	-22.8804	203.508	11.3868	-46.9166	200.672	3.06401	-67.9707	230.403	11.7828	-28.7942	229.074	8.33389	-56.4996	225.802	-3.15819	-79.0848	245.501	5.10654	-22.7157	249.128	-0.258197	-50.1892	241.488	-8.48607	-67.0267	264.655	-5.60912	-12.9544	268.302	-8.621	-34.1235	272.065	-11.0697	-51.7748	251.067	4.06475	25.5721	251.222	0.283111	52.2623	221.405	5.64999	38.3758	
18	0.15	197.643	-16.9516	41.9106	188.06	-27.0713	13.1329	180.04	-32.6481	-5.64654	177.745	-36.3653	-29.1972	203.887	16.0301	-17.7323	202.557	16.6882	-42.5925	201.681	5.72936	-69.0154	226.653	17.2133	-27.1834	229.289	13.5664	-51.3191	228.286	-4.92732	-76.9292	249.641	7.19292	-18.1383	246.719	5.99107	-44.6732	239.125	-8.63727	-65.6708	263.929	-3.4153	-8.41037	265.271	-4.54047	-34.4698	265.809	-10.7745	-50.2404	246.291	5.84427	25.3892	247.277	-1.07738	50.537	223.882	7.42547	39.0341	
19	0.158333	198.029	-14.5794	39.1314	190.311	-23.6429	12.1237	184.55	-28.2381	-6.38574	182.261	-32.3748	-30.9426	205.14	18.4127	-14.1335	201.469	21.0735	-41.8507	196.911	10.1768	-63.6881	231.493	20.237	-25.3061	228.408	16.1158	-52.4173	224.251	-4.92355	-74.0616	247.721	12.6174	-21.0375	242.326	9.12012	-45.6931	235.328	-10.1803	-63.9178	261.522	-0.909374	-7.48741	264.285	-1.04321	-31.8026	255.2	-9.8526	-53.5116	246.087	8.10198	24.7496	249.532	1.59893	49.112	224.857	7.78559	42.0228	
20	0.166667	201.341	-13.4433	37.5107	189.27	-23.1718	15.3076	180.646	-26.4409	-9.10734	188.084	-26.8689	-31.2666	209.481	22.838	-14.5521	200.877	25.2711	-40.3813	197.706	10.914	-62.0318	227.722	23.3835	-19.4043	228.164	21.5946	-49.3328	219.331	-5.44663	-69.6985	245.835	16.2155	-18.812	240.71	10.9269	-45.6441	237.151	-7.79782	-59.2138	265.47	2.14039	-9.12343	264.48	0.648216	-31.1452	254.787	-12.3507	-50.5402	252.049	6.7498	29.9534	252.049	0.853911	52.8679	220.46	10.0902	38.5469	
21	0.175	199.054	-11.4868	37.9901	190.676	-19.9638	11.0514	181.492	-22.64	-11.247	186.787	-25.6444	-31.5411	207.939	27.9839	-15.2412	202.101	29.9479	-37.7037	198.323	8.5501	-61.9912	229.292	27.0717	-20.494	223.538	21.7626	-50.4893	219.845	-5.69341	-63.759	248.606	18.9844	-18.6523	243.403	13.9242	-41.6916	235.33	-7.98558	-55.716	263.82	6.02453	-10.734	258.923	3.02293	-32.1268	247.823	-11.4244	-47.3531	246.864	8.43693	31.7772	250.19	-0.161563	53.1368	225.462	10.0936	42.9482	
22	0.183333	199.829	-10.5265	38.6357	190.139	-19.3217	14.2052	184.146	-17.8137	-12.9541	189.484	-21.3772	-34.4606	207.693	31.5059	-12.5142	203.927	29.8908	-39.2455	201.142	10.2941	-57.4479	232.161	27.0115	-16.5007	228.177	23.4155	-47.3636	218.872	-7.72916	-57.3285	249.413	18.7177	-13.803	241.959	15.9586	-41.5025	234.229	-8.90796	-52.369	259.742	8.63984	-9.28762	259.991	4.99407	-31.3722	242.257	-8.91138	-45.3418	247.542	11.3689	28.532	248.227	-1.78119	55.3312	224.475	11.2493	40.791	
23	0.191667	197.691	-11.3598	41.086	189.17	-17.8247	12.9428	186.164	-17.5918	-8.71855	186.76	-20.2546	-35.0128	211.205	31.267	-7.35451	202.865	33.5175	-37.354	202.792	11.6621	-53.217	228.706	30.0879	-14.0259	227.35	25.1862	-45.6919	219.07	-3.5695	-53.4678	247.359	20.9408	-14.3312	242.355	14.39	-42.923	227.879	-10.4544	-46.0837	261.008	10.1871	-7.59844	256.782	10.8431	-27.7592	243.315	-9.36925	-41.6761	249.387	9.70293	28.3402	250.128	-0.566414	56.2744	224.569	10.2969	46.1139	
